HIERARCHY
ROOT Hips
{
	OFFSET 0.000000 0.000000 0.000000
	CHANNELS 6 Xposition Yposition Zposition Zrotation Yrotation Xrotation 
	JOINT Spine1
	{
		OFFSET -0.013727 5.003763 -0.053727
		CHANNELS 3 Zrotation Yrotation Xrotation
		JOINT Spine2
		{
			OFFSET -0.000000 7.125302 -0.029825
			CHANNELS 3 Zrotation Yrotation Xrotation
			JOINT Chest
			{
				OFFSET -0.000001 7.550064 -0.815971
				CHANNELS 3 Zrotation Yrotation Xrotation
				JOINT Neck1
				{
					OFFSET -0.181677 26.311296 -0.553348
					CHANNELS 3 Zrotation Yrotation Xrotation
					JOINT Neck2
					{
						OFFSET -0.000002 7.709399 2.302585
						CHANNELS 3 Zrotation Yrotation Xrotation
						JOINT Head
						{
							OFFSET -0.000005 6.128912 1.953709
							CHANNELS 3 Zrotation Yrotation Xrotation
							JOINT HeadEnd
							{
								OFFSET 0.003598 16.065403 -1.835380
								CHANNELS 3 Zrotation Yrotation Xrotation
								End Site
								{
									OFFSET 0.000000 0.000000 0.000000
								}
							}
							JOINT Jaw
							{
								OFFSET 0.002637 0.475592 3.094940
								CHANNELS 3 Zrotation Yrotation Xrotation
								End Site
								{
									OFFSET 0.000000 0.000000 0.000000
								}
							}
							JOINT LeftEye
							{
								OFFSET 3.206381 5.380209 7.586883
								CHANNELS 3 Zrotation Yrotation Xrotation
								End Site
								{
									OFFSET 0.000000 0.000000 0.000000
								}
							}
							JOINT RightEye
							{
								OFFSET -3.222440 5.361867 7.558232
								CHANNELS 3 Zrotation Yrotation Xrotation
								End Site
								{
									OFFSET 0.000000 0.000000 0.000000
								}
							}
						}
					}
				}
				JOINT LeftShoulder
				{
					OFFSET 1.621652 23.237165 5.113413
					CHANNELS 3 Zrotation Yrotation Xrotation
					JOINT LeftArm
					{
						OFFSET 14.919845 -0.000000 -5.502325
						CHANNELS 3 Zrotation Yrotation Xrotation
						JOINT LeftForeArm
						{
							OFFSET 28.739309 0.000003 -0.002587
							CHANNELS 3 Zrotation Yrotation Xrotation
							JOINT LeftHand
							{
								OFFSET 27.093977 -0.000003 0.002610
								CHANNELS 3 Zrotation Yrotation Xrotation
								JOINT LeftHandThumb1
								{
									OFFSET 2.276480 -1.392046 3.191413
									CHANNELS 3 Zrotation Yrotation Xrotation
									JOINT LeftHandThumb2
									{
										OFFSET 4.012840 -1.828126 1.641655
										CHANNELS 3 Zrotation Yrotation Xrotation
										JOINT LeftHandThumb3
										{
											OFFSET 2.798516 0.000001 -0.000003
											CHANNELS 3 Zrotation Yrotation Xrotation
											JOINT LeftHandThumbEnd
											{
												OFFSET 3.180791 -0.000001 0.000003
												CHANNELS 3 Zrotation Yrotation Xrotation
												End Site
												{
													OFFSET 0.000000 0.000000 0.000000
												}
											}
										}
									}
								}
								JOINT LeftHandIndex1
								{
									OFFSET 3.247553 -0.531999 2.296169
									CHANNELS 3 Zrotation Yrotation Xrotation
									JOINT LeftHandIndex2
									{
										OFFSET 6.364579 0.012062 0.178600
										CHANNELS 3 Zrotation Yrotation Xrotation
										JOINT LeftHandIndex3
										{
											OFFSET 3.662366 0.000001 0.000000
											CHANNELS 3 Zrotation Yrotation Xrotation
											JOINT LeftHandIndex4
											{
												OFFSET 2.329243 0.000003 0.000003
												CHANNELS 3 Zrotation Yrotation Xrotation
												JOINT LeftHandIndexEnd
												{
													OFFSET 2.759619 -0.180540 -0.113024
													CHANNELS 3 Zrotation Yrotation Xrotation
													End Site
													{
														OFFSET 0.000000 0.000000 0.000000
													}
												}
											}
										}
									}
								}
								JOINT LeftHandMiddle1
								{
									OFFSET 3.163498 0.240982 1.000332
									CHANNELS 3 Zrotation Yrotation Xrotation
									JOINT LeftHandMiddle2
									{
										OFFSET 6.190778 -0.259276 -1.002549
										CHANNELS 3 Zrotation Yrotation Xrotation
										JOINT LeftHandMiddle3
										{
											OFFSET 4.356522 -0.000006 0.000001
											CHANNELS 3 Zrotation Yrotation Xrotation
											JOINT LeftHandMiddle4
											{
												OFFSET 2.996875 -0.000007 0.000000
												CHANNELS 3 Zrotation Yrotation Xrotation
												JOINT LeftHandMiddleEnd
												{
													OFFSET 2.304294 -0.294571 -0.031740
													CHANNELS 3 Zrotation Yrotation Xrotation
													End Site
													{
														OFFSET 0.000000 0.000000 0.000000
													}
												}
											}
										}
									}
								}
								JOINT LeftHandRing1
								{
									OFFSET 2.882642 -0.053650 -0.322543
									CHANNELS 3 Zrotation Yrotation Xrotation
									JOINT LeftHandRing2
									{
										OFFSET 5.854543 -0.486203 -1.373842
										CHANNELS 3 Zrotation Yrotation Xrotation
										JOINT LeftHandRing3
										{
											OFFSET 4.350580 0.000000 0.000003
											CHANNELS 3 Zrotation Yrotation Xrotation
											JOINT LeftHandRing4
											{
												OFFSET 2.651324 0.000007 0.000003
												CHANNELS 3 Zrotation Yrotation Xrotation
												JOINT LeftHandRingEnd
												{
													OFFSET 1.936111 0.077686 -0.000070
													CHANNELS 3 Zrotation Yrotation Xrotation
													End Site
													{
														OFFSET 0.000000 0.000000 0.000000
													}
												}
											}
										}
									}
								}
								JOINT LeftHandPinky1
								{
									OFFSET 2.865499 -0.310004 -1.600378
									CHANNELS 3 Zrotation Yrotation Xrotation
									JOINT LeftHandPinky2
									{
										OFFSET 5.087853 -1.331141 -1.771231
										CHANNELS 3 Zrotation Yrotation Xrotation
										JOINT LeftHandPinky3
										{
											OFFSET 3.070974 0.000002 0.000000
											CHANNELS 3 Zrotation Yrotation Xrotation
											JOINT LeftHandPinky4
											{
												OFFSET 1.549667 0.000000 0.000001
												CHANNELS 3 Zrotation Yrotation Xrotation
												JOINT LeftHandPinkyEnd
												{
													OFFSET 1.944894 -0.157803 0.057219
													CHANNELS 3 Zrotation Yrotation Xrotation
													End Site
													{
														OFFSET 0.000000 0.000000 0.000000
													}
												}
											}
										}
									}
								}
							}
						}
					}
				}
				JOINT RightShoulder
				{
					OFFSET -1.380118 23.180309 5.214158
					CHANNELS 3 Zrotation Yrotation Xrotation
					JOINT RightArm
					{
						OFFSET -15.037197 0.000011 -5.545603
						CHANNELS 3 Zrotation Yrotation Xrotation
						JOINT RightForeArm
						{
							OFFSET -28.736639 0.000003 -0.002597
							CHANNELS 3 Zrotation Yrotation Xrotation
							JOINT RightHand
							{
								OFFSET -27.133617 -0.000000 0.002613
								CHANNELS 3 Zrotation Yrotation Xrotation
								JOINT RightHandThumb1
								{
									OFFSET -2.274036 -1.383990 3.163127
									CHANNELS 3 Zrotation Yrotation Xrotation
									JOINT RightHandThumb2
									{
										OFFSET -4.011429 -1.827468 1.640914
										CHANNELS 3 Zrotation Yrotation Xrotation
										JOINT RightHandThumb3
										{
											OFFSET -2.794934 -0.000004 -0.000003
											CHANNELS 3 Zrotation Yrotation Xrotation
											JOINT RightHandThumbEnd
											{
												OFFSET -3.183856 0.000003 0.000001
												CHANNELS 3 Zrotation Yrotation Xrotation
												End Site
												{
													OFFSET 0.000000 0.000000 0.000000
												}
											}
										}
									}
								}
								JOINT RightHandIndex1
								{
									OFFSET -3.253270 -0.520059 2.282866
									CHANNELS 3 Zrotation Yrotation Xrotation
									JOINT RightHandIndex2
									{
										OFFSET -6.341918 0.012472 0.178265
										CHANNELS 3 Zrotation Yrotation Xrotation
										JOINT RightHandIndex3
										{
											OFFSET -3.654875 -0.000009 -0.000001
											CHANNELS 3 Zrotation Yrotation Xrotation
											JOINT RightHandIndex4
											{
												OFFSET -2.327586 -0.000000 -0.000001
												CHANNELS 3 Zrotation Yrotation Xrotation
												JOINT RightHandIndexEnd
												{
													OFFSET -2.761788 -0.180657 -0.113079
													CHANNELS 3 Zrotation Yrotation Xrotation
													End Site
													{
														OFFSET 0.000000 0.000000 0.000000
													}
												}
											}
										}
									}
								}
								JOINT RightHandMiddle1
								{
									OFFSET -3.168106 0.246593 1.001030
									CHANNELS 3 Zrotation Yrotation Xrotation
									JOINT RightHandMiddle2
									{
										OFFSET -6.180830 -0.258836 -1.000896
										CHANNELS 3 Zrotation Yrotation Xrotation
										JOINT RightHandMiddle3
										{
											OFFSET -4.348906 -0.000000 -0.000000
											CHANNELS 3 Zrotation Yrotation Xrotation
											JOINT RightHandMiddle4
											{
												OFFSET -3.000243 -0.000004 -0.000002
												CHANNELS 3 Zrotation Yrotation Xrotation
												JOINT RightHandMiddleEnd
												{
													OFFSET -2.302518 -0.294371 -0.031706
													CHANNELS 3 Zrotation Yrotation Xrotation
													End Site
													{
														OFFSET 0.000000 0.000000 0.000000
													}
												}
											}
										}
									}
								}
								JOINT RightHandRing1
								{
									OFFSET -2.885693 -0.067953 -0.308858
									CHANNELS 3 Zrotation Yrotation Xrotation
									JOINT RightHandRing2
									{
										OFFSET -5.854196 -0.486132 -1.373732
										CHANNELS 3 Zrotation Yrotation Xrotation
										JOINT RightHandRing3
										{
											OFFSET -4.338814 -0.000004 -0.000000
											CHANNELS 3 Zrotation Yrotation Xrotation
											JOINT RightHandRing4
											{
												OFFSET -2.654906 -0.000004 0.000004
												CHANNELS 3 Zrotation Yrotation Xrotation
												JOINT RightHandRingEnd
												{
													OFFSET -1.933570 0.077524 -0.000052
													CHANNELS 3 Zrotation Yrotation Xrotation
													End Site
													{
														OFFSET 0.000000 0.000000 0.000000
													}
												}
											}
										}
									}
								}
								JOINT RightHandPinky1
								{
									OFFSET -2.866429 -0.342798 -1.584145
									CHANNELS 3 Zrotation Yrotation Xrotation
									JOINT RightHandPinky2
									{
										OFFSET -5.091370 -1.332054 -1.772384
										CHANNELS 3 Zrotation Yrotation Xrotation
										JOINT RightHandPinky3
										{
											OFFSET -3.062666 -0.000007 0.000000
											CHANNELS 3 Zrotation Yrotation Xrotation
											JOINT RightHandPinky4
											{
												OFFSET -1.546527 0.000005 -0.000003
												CHANNELS 3 Zrotation Yrotation Xrotation
												JOINT RightHandPinkyEnd
												{
													OFFSET -1.945122 -0.157721 0.057212
													CHANNELS 3 Zrotation Yrotation Xrotation
													End Site
													{
														OFFSET 0.000000 0.000000 0.000000
													}
												}
											}
										}
									}
								}
							}
						}
					}
				}
			}
		}
	}
	JOINT LeftLeg
	{
		OFFSET 10.043214 -8.434526 2.595654
		CHANNELS 3 Zrotation Yrotation Xrotation
		JOINT LeftShin
		{
			OFFSET -0.000001 -43.221752 -0.802913
			CHANNELS 3 Zrotation Yrotation Xrotation
			JOINT LeftFoot
			{
				OFFSET 0.000001 -42.155094 -3.481522
				CHANNELS 3 Zrotation Yrotation Xrotation
				JOINT LeftToeBase
				{
					OFFSET -0.000000 -5.059474 13.231529
					CHANNELS 3 Zrotation Yrotation Xrotation
					JOINT LeftToeEnd
					{
						OFFSET -0.009607 -1.647615 6.513017
						CHANNELS 3 Zrotation Yrotation Xrotation
						End Site
						{
							OFFSET 0.000000 0.000000 0.000000
						}
					}
				}
			}
		}
	}
	JOINT RightLeg
	{
		OFFSET -10.047277 -8.295259 2.620317
		CHANNELS 3 Zrotation Yrotation Xrotation
		JOINT RightShin
		{
			OFFSET 0.000001 -43.362213 -0.805557
			CHANNELS 3 Zrotation Yrotation Xrotation
			JOINT RightFoot
			{
				OFFSET 0.000002 -42.117393 -3.478398
				CHANNELS 3 Zrotation Yrotation Xrotation
				JOINT RightToeBase
				{
					OFFSET -0.000001 -5.079609 13.284196
					CHANNELS 3 Zrotation Yrotation Xrotation
					JOINT RightToeEnd
					{
						OFFSET 0.009532 -1.634383 6.460591
						CHANNELS 3 Zrotation Yrotation Xrotation
						End Site
						{
							OFFSET 0.000000 0.000000 0.000000
						}
					}
				}
			}
		}
	}
}
MOTION
Frames: 4
Frame Time: 0.033333
36.322693 85.653099 -45.655807 2.418505 18.475634 21.361738 -1.166827 -0.800329 10.517449 -0.549031 -2.078688 0.424783 1.141231 -4.352689 16.214106 19.164846 -3.693760 2.530550 -1.860528 -4.538328 -3.601713 7.522533 -7.363578 -9.193278 0.000077 -0.000023 0.000008 -0.022456 0.074021 -0.043608 0.701330 -3.649932 -10.595359 -0.766674 3.808626 -10.507215 10.392241 -19.141056 5.026108 -59.189739 -60.834232 -5.379773 179.503174 -58.994534 -179.848877 13.528062 1.090981 25.637400 -5.882100 9.861276 0.702589 -10.936858 -0.360576 7.156195 0.000000 8.774811 -0.000002 -16.502121 17.551834 5.933033 -1.844032 2.498501 -2.507275 -10.163588 4.678937 4.621103 -20.975994 -0.000005 -0.000000 -21.226246 2.451690 -3.593997 0.000000 -0.000008 0.000000 -1.362681 2.240796 -0.746323 -21.334887 0.584909 3.008319 -13.821192 -0.000001 0.000001 -23.887123 -0.249078 -0.839481 -60.347702 2.700662 -1.443930 -0.294024 1.679686 0.833255 -14.218190 0.093213 1.300578 -34.211998 -0.287565 0.967166 -20.033178 0.964536 1.212838 0.000000 0.000001 0.000000 -3.440384 0.788235 0.501653 -15.928164 -3.167306 2.999702 -6.338814 0.000000 0.000001 -18.123411 3.648178 -4.905662 -0.000005 -0.000002 -0.000002 2.573645 13.518250 7.820294 43.599182 33.605404 -32.201527 179.666153 47.665504 179.735550 -31.660723 2.474070 11.130052 2.243540 -5.255034 -3.180155 14.282878 -0.826596 6.952496 -0.000000 -12.690593 -0.000003 16.064665 -17.588337 2.373085 1.665665 -1.955919 -2.878296 4.727795 -4.170586 4.993918 11.020513 0.000004 -0.000001 12.109034 -3.735711 -2.866781 -0.000002 -0.000000 -0.000001 1.291985 -1.928549 -1.498088 14.800114 0.567466 3.865602 14.242553 -1.341737 -6.660648 19.631939 0.143924 -0.648243 49.695042 -0.779832 -6.128364 0.353028 -1.511149 -0.031940 20.222767 3.684306 2.316628 18.787245 0.000005 0.000000 10.751610 -0.479869 1.397904 0.000002 0.000002 0.000002 3.273804 0.305948 -0.580110 21.486790 11.830364 2.266131 8.162915 0.000004 -0.000001 18.399054 -3.798979 -4.940570 0.000003 0.000000 0.000000 15.486814 12.132489 -48.052185 -0.576449 -0.956584 53.053093 -19.615602 -15.837704 -21.457569 1.597654 -1.788478 -0.786416 -0.000000 -0.000000 0.000002 -18.697290 -22.737589 -55.692562 0.761114 1.418308 37.373131 26.309504 10.354916 4.116479 -1.396788 0.970811 -0.772117 0.000000 0.000000 -0.000001 
36.334305 85.836830 -45.029415 2.073060 17.710651 19.565506 -1.325590 -0.869286 10.226589 -0.628116 -2.302243 0.216699 0.773022 -4.702032 16.052752 19.415831 -3.812024 2.625072 -1.858734 -4.639376 -3.614057 7.621270 -7.345269 -9.997191 0.000076 -0.000023 0.000007 -0.011008 0.063316 -0.053868 0.713941 -3.664458 -10.582767 -0.747582 3.798661 -10.511987 10.026607 -19.566177 5.387143 -58.873920 -60.330196 -5.507391 179.221741 -59.257702 -179.599304 13.933708 0.815500 24.988129 -5.882100 9.861278 0.702591 -10.936860 -0.360574 7.156197 0.000000 8.774812 -0.000002 -16.393894 17.546112 6.035349 -1.844030 2.498501 -2.507275 -10.163589 4.678939 4.621104 -20.975996 -0.000003 0.000003 -21.226248 2.451694 -3.593992 0.000001 -0.000006 -0.000000 -1.362681 2.240793 -0.746322 -21.334892 0.584910 3.008320 -13.821197 -0.000002 0.000002 -23.887131 -0.249078 -0.839482 -60.217915 2.647030 -1.392945 -0.294024 1.679685 0.833256 -14.218192 0.093211 1.300579 -34.212006 -0.287564 0.967172 -20.033178 0.964535 1.212841 0.000000 0.000000 0.000000 -3.440386 0.788233 0.501655 -15.928167 -3.167310 2.999704 -6.338815 -0.000002 0.000001 -18.123411 3.648177 -4.905660 -0.000004 -0.000001 -0.000003 2.686383 12.766971 7.789203 43.850399 33.504921 -31.540163 179.499847 47.230637 179.668930 -31.555376 1.960253 12.775206 2.243540 -5.255033 -3.180155 14.282877 -0.826593 6.952494 -0.000002 -12.690593 -0.000000 16.197710 -17.670143 2.415606 1.665664 -1.955918 -2.878296 4.727793 -4.170584 4.993920 11.020512 0.000003 -0.000001 12.109034 -3.735712 -2.866779 -0.000001 -0.000001 -0.000001 1.291984 -1.928546 -1.498086 14.800111 0.567466 3.865602 14.242553 -1.341736 -6.660647 19.631939 0.143925 -0.648245 49.736252 -0.833023 -6.053159 0.353029 -1.511149 -0.031939 20.222767 3.684308 2.316627 18.787245 0.000005 -0.000001 10.751612 -0.479866 1.397903 0.000001 0.000001 0.000000 3.273803 0.305948 -0.580111 21.486790 11.830361 2.266130 8.162916 0.000003 -0.000000 18.399054 -3.798982 -4.940568 0.000004 0.000001 -0.000001 16.337730 11.794110 -45.035679 -0.542196 -0.991026 52.447559 -19.679213 -15.803341 -22.152216 1.598079 -1.822777 -0.921295 0.000000 0.000000 0.000002 -18.749279 -21.929913 -54.004669 0.773666 1.388957 37.645794 25.949417 10.781904 3.748016 -1.399598 0.961571 -0.740241 0.000000 0.000000 -0.000001 
36.316509 86.033409 -44.377571 1.714356 16.964169 17.776609 -1.499210 -0.944847 9.950184 -0.691225 -2.552606 0.004716 0.395674 -5.044532 15.890771 19.613150 -3.940450 2.761294 -1.880097 -4.746589 -3.623551 7.682668 -7.371655 -10.660607 0.000077 -0.000024 0.000006 -0.003487 0.053236 -0.041640 0.713970 -3.658673 -10.568132 -0.733857 3.778176 -10.497731 9.640422 -19.960207 5.765051 -58.863354 -59.822323 -5.150381 178.998993 -59.657539 -179.358948 14.115954 0.814267 24.543423 -5.882101 9.861279 0.702590 -10.936858 -0.360574 7.156196 0.000000 8.774815 -0.000002 -16.340843 17.610979 6.118214 -1.844030 2.498503 -2.507277 -10.163589 4.678938 4.621105 -20.975994 -0.000005 0.000001 -21.226250 2.451692 -3.593994 -0.000001 -0.000005 0.000000 -1.362681 2.240795 -0.746323 -21.334887 0.584906 3.008320 -13.821197 -0.000002 0.000002 -23.887131 -0.249079 -0.839483 -60.240147 2.596866 -1.381448 -0.294025 1.679686 0.833256 -14.218190 0.093214 1.300578 -34.212002 -0.287566 0.967169 -20.033176 0.964534 1.212842 0.000000 -0.000000 0.000002 -3.440386 0.788231 0.501656 -15.928167 -3.167307 2.999703 -6.338817 -0.000001 -0.000001 -18.123411 3.648176 -4.905663 -0.000004 -0.000000 -0.000001 2.818119 11.966776 7.789867 43.930405 33.083664 -30.702774 179.468338 46.898342 179.683670 -31.309641 1.231571 14.300483 2.243540 -5.255034 -3.180155 14.282878 -0.826594 6.952498 -0.000001 -12.690591 -0.000000 16.257410 -17.697590 2.457251 1.665664 -1.955919 -2.878296 4.727796 -4.170582 4.993921 11.020512 0.000003 -0.000001 12.109034 -3.735710 -2.866779 -0.000001 0.000001 0.000002 1.291983 -1.928545 -1.498088 14.800113 0.567465 3.865604 14.242554 -1.341736 -6.660647 19.631939 0.143924 -0.648243 49.777805 -0.883843 -5.990865 0.353029 -1.511150 -0.031940 20.222769 3.684305 2.316630 18.787245 0.000004 0.000001 10.751612 -0.479870 1.397904 0.000001 0.000001 0.000000 3.273804 0.305946 -0.580109 21.486792 11.830363 2.266134 8.162916 0.000002 -0.000000 18.399054 -3.798980 -4.940567 0.000004 0.000000 -0.000001 17.189604 11.473360 -41.963886 -0.509949 -1.024799 51.699066 -19.787123 -15.784559 -22.746534 1.597676 -1.844948 -1.129426 -0.000000 -0.000000 0.000002 -18.712900 -21.162451 -52.294888 0.775237 1.357646 37.896072 25.612581 11.295128 3.390825 -1.401720 0.934851 -0.765794 0.000000 0.000000 -0.000001 
36.291122 86.203773 -43.687248 1.354076 16.190723 16.074738 -1.675189 -0.992522 9.652333 -0.751330 -2.792510 -0.189644 0.051210 -5.374944 15.746072 19.710983 -4.028640 2.832939 -1.957764 -4.845434 -3.636287 7.704610 -7.468142 -11.191204 0.000077 -0.000024 0.000006 -0.001883 0.048779 -0.034113 0.714701 -3.659803 -10.544329 -0.735462 3.772976 -10.487479 9.228319 -20.287989 6.122349 -59.191296 -59.414078 -4.328033 178.819077 -60.128017 -179.104919 14.106941 1.013125 24.133091 -5.882101 9.861277 0.702590 -10.936861 -0.360574 7.156197 0.000002 8.774815 -0.000001 -16.299343 17.728029 6.199267 -1.844031 2.498501 -2.507275 -10.163590 4.678938 4.621105 -20.975998 -0.000008 0.000004 -21.226254 2.451691 -3.593992 0.000000 -0.000005 -0.000003 -1.362681 2.240799 -0.746323 -21.334894 0.584907 3.008320 -13.821198 -0.000002 0.000003 -23.887135 -0.249080 -0.839478 -60.361809 2.571831 -1.380505 -0.294024 1.679686 0.833255 -14.218195 0.093214 1.300580 -34.212006 -0.287565 0.967173 -20.033182 0.964533 1.212842 0.000000 0.000000 0.000000 -3.440386 0.788232 0.501655 -15.928167 -3.167306 2.999703 -6.338818 -0.000002 -0.000001 -18.123413 3.648175 -4.905661 -0.000003 -0.000000 -0.000001 2.918797 11.220516 7.801010 43.672005 32.493603 -29.975336 179.379257 46.715866 179.606323 -30.984175 0.467427 15.595428 2.243540 -5.255034 -3.180156 14.282877 -0.826593 6.952498 -0.000003 -12.690587 -0.000000 16.308617 -17.733818 2.499822 1.665665 -1.955920 -2.878297 4.727794 -4.170582 4.993917 11.020511 0.000004 -0.000002 12.109031 -3.735711 -2.866779 -0.000001 -0.000001 0.000001 1.291984 -1.928545 -1.498087 14.800111 0.567468 3.865604 14.242551 -1.341733 -6.660650 19.631937 0.143926 -0.648243 49.877674 -0.960643 -5.956190 0.353028 -1.511151 -0.031940 20.222767 3.684307 2.316628 18.787243 0.000005 -0.000001 10.751610 -0.479868 1.397903 0.000001 0.000002 -0.000000 3.273804 0.305948 -0.580109 21.486790 11.830364 2.266130 8.162916 -0.000000 0.000000 18.399054 -3.798981 -4.940568 0.000004 -0.000001 -0.000001 18.002058 11.265934 -38.942619 -0.506552 -1.079709 50.920078 -19.872503 -15.781561 -23.383724 1.600197 -1.873863 -1.308587 0.000000 -0.000000 0.000002 -18.622248 -20.422886 -50.697739 0.797001 1.339379 38.225628 25.253910 11.870479 2.977122 -1.405173 0.927380 -0.862748 -0.000000 -0.000001 -0.000001 
